<svg xmlns="http://www.w3.org/2000/svg" viewBox="0 0 100 30">
    <g id="메인_로고">
        <path d="M8.49,2h1.2V8H8.49V9H7.28v1H.05V0H7.28V1H8.49ZM7.28,3V2H2.46V8H7.28V3Z"/>
        <path d="M19.77,0H21V2H13.75V4h6V5H18.56V6H13.75V8H21v2H11.34V0h8.43Z"/>
        <path d="M31,0h1.2V8H31V9H28.63v1h-2.4V9H23.82V8h-1.2V0H25V7h1.21V8h2.4V7h1.21V0Z"/>
        <path d="M42.33,0h1.2V2H36.3V4h6V5H41.12V6H36.3V8h7.23v2H33.89V0h8.44Z"/>
        <path d="M53.6,7h1.21v3H45.18V0h2.4V8H52.4V7Z"/>
        <path d="M64.9,1h1.2V9H64.9v1H57.67V9H56.46V1h1.21V0H64.9ZM63.7,3V2H58.87V8H63.7V3Z"/>
        <path d="M76.18,1h1.2V5h-1.2V6H75V7H70.16v3H67.74V0h8.44ZM73.77,5H75V2H70.16V5h3.61Z"/>
        <path d="M87.47,0h1.2V2H81.44V4h6V5H86.25V6H81.44V8h7.23v2H79V0h8.44Z"/>
        <path d="M98.75,1H100V5h-1.2V6H97.54V7h1.21V8H100v2H97.54V9h-1.2V8H95.13V7h-2.4v3H90.31V0h8.44ZM96.34,5h1.2V2H92.73V5h3.61Z"/>
        <path d="M15.38,13.6H17.6v3.65H13.19V15.42H4.38V26.34h8.81V22.71H6.6V19.06h8.78v1.82H17.6v7.29H15.38V30H2.19V28.17H0V13.6H2.19V11.77H15.38Z"/>
        <path d="M36,11.79H38.2v16.4H36V30H22.8V28.19H20.61V11.79H25V26.35H33.8V11.79Z"/>
        <path d="M56.6,11.79h2.19V30H54.41V17.25H52.19V28.19H47.81V17.25H45.6V30H41.21V11.79H45.6v1.83h2.21v1.82h4.38V13.62h2.22V11.79Z"/>
        <path d="M77.2,13.6h2.19v5.46H77.2v1.82h2.19v7.29H77.2V30H61.8V11.77H77.2Zm-4.4,5.46H75V15.42H66.2v3.64h6.6ZM75,24.52V22.71H66.2v3.63H75Z"/>
        <path d="M97.81,13.62H100V28.19H97.81V30H84.62V28.19H82.4V13.62h2.22V11.79H97.81Zm-2.19,3.63V15.44H86.81V26.35h8.81v-9.1Z"/>
    </g>
</svg>
